solid OpenSCAD_Model
  facet normal -1 0 0
    outer loop
      vertex 0 0 0
      vertex 0 34.6 3
      vertex 0 34.6 0
    endloop
  endfacet
  facet normal -1 -0 0
    outer loop
      vertex 0 34.6 3
      vertex 0 0 0
      vertex 0 0 3
    endloop
  endfacet
  facet normal 0 0 1
    outer loop
      vertex 81.6 34.6 3
      vertex 80.3 33.3 3
      vertex 81.6 0 3
    endloop
  endfacet
  facet normal 0 0 1
    outer loop
      vertex 81.6 34.6 3
      vertex 1.3 33.3 3
      vertex 80.3 33.3 3
    endloop
  endfacet
  facet normal 0 0 1
    outer loop
      vertex 1.3 33.3 3
      vertex 0 34.6 3
      vertex 1.3 1.3 3
    endloop
  endfacet
  facet normal -0 0 1
    outer loop
      vertex 0 34.6 3
      vertex 1.3 33.3 3
      vertex 81.6 34.6 3
    endloop
  endfacet
  facet normal -0 0 1
    outer loop
      vertex 80.3 1.3 3
      vertex 81.6 0 3
      vertex 80.3 33.3 3
    endloop
  endfacet
  facet normal -0 0 1
    outer loop
      vertex 1.3 1.3 3
      vertex 81.6 0 3
      vertex 80.3 1.3 3
    endloop
  endfacet
  facet normal 0 0 1
    outer loop
      vertex 1.3 1.3 3
      vertex 0 0 3
      vertex 81.6 0 3
    endloop
  endfacet
  facet normal 0 0 1
    outer loop
      vertex 0 0 3
      vertex 1.3 1.3 3
      vertex 0 34.6 3
    endloop
  endfacet
  facet normal 1 -0 0
    outer loop
      vertex 81.6 0 3
      vertex 81.6 34.6 0
      vertex 81.6 34.6 3
    endloop
  endfacet
  facet normal 1 0 0
    outer loop
      vertex 81.6 34.6 0
      vertex 81.6 0 3
      vertex 81.6 0 0
    endloop
  endfacet
  facet normal 0 0 -1
    outer loop
      vertex 0 0 0
      vertex 81.6 34.6 0
      vertex 81.6 0 0
    endloop
  endfacet
  facet normal -0 0 -1
    outer loop
      vertex 81.6 34.6 0
      vertex 0 0 0
      vertex 0 34.6 0
    endloop
  endfacet
  facet normal 0 -1 0
    outer loop
      vertex 0 0 0
      vertex 81.6 0 3
      vertex 0 0 3
    endloop
  endfacet
  facet normal 0 -1 -0
    outer loop
      vertex 81.6 0 3
      vertex 0 0 0
      vertex 81.6 0 0
    endloop
  endfacet
  facet normal 0 1 -0
    outer loop
      vertex 81.6 34.6 0
      vertex 0 34.6 3
      vertex 81.6 34.6 3
    endloop
  endfacet
  facet normal 0 1 0
    outer loop
      vertex 0 34.6 3
      vertex 81.6 34.6 0
      vertex 0 34.6 0
    endloop
  endfacet
  facet normal 1 -0 0
    outer loop
      vertex 1.3 1.3 3
      vertex 1.3 33.3 1
      vertex 1.3 33.3 3
    endloop
  endfacet
  facet normal 1 0 0
    outer loop
      vertex 1.3 33.3 1
      vertex 1.3 1.3 3
      vertex 1.3 1.3 1
    endloop
  endfacet
  facet normal -1 0 0
    outer loop
      vertex 80.3 1.3 1
      vertex 80.3 33.3 3
      vertex 80.3 33.3 1
    endloop
  endfacet
  facet normal -1 -0 0
    outer loop
      vertex 80.3 33.3 3
      vertex 80.3 1.3 1
      vertex 80.3 1.3 3
    endloop
  endfacet
  facet normal 0 -1 0
    outer loop
      vertex 1.3 33.3 1
      vertex 80.3 33.3 3
      vertex 1.3 33.3 3
    endloop
  endfacet
  facet normal 0 -1 -0
    outer loop
      vertex 80.3 33.3 3
      vertex 1.3 33.3 1
      vertex 80.3 33.3 1
    endloop
  endfacet
  facet normal -0 0 1
    outer loop
      vertex 1.3 33.3 1
      vertex 80.3 1.3 1
      vertex 80.3 33.3 1
    endloop
  endfacet
  facet normal 0 0 1
    outer loop
      vertex 80.3 1.3 1
      vertex 1.3 33.3 1
      vertex 1.3 1.3 1
    endloop
  endfacet
  facet normal 0 1 -0
    outer loop
      vertex 80.3 1.3 1
      vertex 1.3 1.3 3
      vertex 80.3 1.3 3
    endloop
  endfacet
  facet normal 0 1 0
    outer loop
      vertex 1.3 1.3 3
      vertex 80.3 1.3 1
      vertex 1.3 1.3 1
    endloop
  endfacet
endsolid OpenSCAD_Model
