solid OpenSCAD_Model
  facet normal -1 0 0
    outer loop
      vertex 0 0 0
      vertex 0 34.4 3
      vertex 0 34.4 0
    endloop
  endfacet
  facet normal -1 -0 0
    outer loop
      vertex 0 34.4 3
      vertex 0 0 0
      vertex 0 0 3
    endloop
  endfacet
  facet normal 0 0 1
    outer loop
      vertex 66.4 34.4 3
      vertex 65.2 33.2 3
      vertex 66.4 0 3
    endloop
  endfacet
  facet normal 0 0 1
    outer loop
      vertex 66.4 34.4 3
      vertex 1.2 33.2 3
      vertex 65.2 33.2 3
    endloop
  endfacet
  facet normal 0 0 1
    outer loop
      vertex 1.2 33.2 3
      vertex 0 34.4 3
      vertex 1.2 1.2 3
    endloop
  endfacet
  facet normal -0 0 1
    outer loop
      vertex 0 34.4 3
      vertex 1.2 33.2 3
      vertex 66.4 34.4 3
    endloop
  endfacet
  facet normal -0 0 1
    outer loop
      vertex 65.2 1.2 3
      vertex 66.4 0 3
      vertex 65.2 33.2 3
    endloop
  endfacet
  facet normal -0 0 1
    outer loop
      vertex 1.2 1.2 3
      vertex 66.4 0 3
      vertex 65.2 1.2 3
    endloop
  endfacet
  facet normal 0 0 1
    outer loop
      vertex 1.2 1.2 3
      vertex 0 0 3
      vertex 66.4 0 3
    endloop
  endfacet
  facet normal 0 0 1
    outer loop
      vertex 0 0 3
      vertex 1.2 1.2 3
      vertex 0 34.4 3
    endloop
  endfacet
  facet normal 1 -0 0
    outer loop
      vertex 66.4 0 3
      vertex 66.4 34.4 0
      vertex 66.4 34.4 3
    endloop
  endfacet
  facet normal 1 0 0
    outer loop
      vertex 66.4 34.4 0
      vertex 66.4 0 3
      vertex 66.4 0 0
    endloop
  endfacet
  facet normal 0 0 -1
    outer loop
      vertex 0 0 0
      vertex 66.4 34.4 0
      vertex 66.4 0 0
    endloop
  endfacet
  facet normal -0 0 -1
    outer loop
      vertex 66.4 34.4 0
      vertex 0 0 0
      vertex 0 34.4 0
    endloop
  endfacet
  facet normal 0 -1 0
    outer loop
      vertex 0 0 0
      vertex 66.4 0 3
      vertex 0 0 3
    endloop
  endfacet
  facet normal 0 -1 -0
    outer loop
      vertex 66.4 0 3
      vertex 0 0 0
      vertex 66.4 0 0
    endloop
  endfacet
  facet normal 0 1 -0
    outer loop
      vertex 66.4 34.4 0
      vertex 0 34.4 3
      vertex 66.4 34.4 3
    endloop
  endfacet
  facet normal 0 1 0
    outer loop
      vertex 0 34.4 3
      vertex 66.4 34.4 0
      vertex 0 34.4 0
    endloop
  endfacet
  facet normal 1 -0 0
    outer loop
      vertex 1.2 1.2 3
      vertex 1.2 33.2 1
      vertex 1.2 33.2 3
    endloop
  endfacet
  facet normal 1 0 0
    outer loop
      vertex 1.2 33.2 1
      vertex 1.2 1.2 3
      vertex 1.2 1.2 1
    endloop
  endfacet
  facet normal -1 0 0
    outer loop
      vertex 65.2 1.2 1
      vertex 65.2 33.2 3
      vertex 65.2 33.2 1
    endloop
  endfacet
  facet normal -1 -0 0
    outer loop
      vertex 65.2 33.2 3
      vertex 65.2 1.2 1
      vertex 65.2 1.2 3
    endloop
  endfacet
  facet normal -0 0 1
    outer loop
      vertex 1.2 33.2 1
      vertex 65.2 1.2 1
      vertex 65.2 33.2 1
    endloop
  endfacet
  facet normal 0 0 1
    outer loop
      vertex 65.2 1.2 1
      vertex 1.2 33.2 1
      vertex 1.2 1.2 1
    endloop
  endfacet
  facet normal 0 1 -0
    outer loop
      vertex 65.2 1.2 1
      vertex 1.2 1.2 3
      vertex 65.2 1.2 3
    endloop
  endfacet
  facet normal 0 1 0
    outer loop
      vertex 1.2 1.2 3
      vertex 65.2 1.2 1
      vertex 1.2 1.2 1
    endloop
  endfacet
  facet normal 0 -1 0
    outer loop
      vertex 1.2 33.2 1
      vertex 65.2 33.2 3
      vertex 1.2 33.2 3
    endloop
  endfacet
  facet normal 0 -1 -0
    outer loop
      vertex 65.2 33.2 3
      vertex 1.2 33.2 1
      vertex 65.2 33.2 1
    endloop
  endfacet
endsolid OpenSCAD_Model
